<svg id="visual" viewBox="0 0 430 540" width="430" height="540" xmlns="http://www.w3.org/2000/svg" xmlns:xlink="http://www.w3.org/1999/xlink" version="1.1"><rect x="0" y="0" width="430" height="540" fill="#000000"></rect><defs><linearGradient id="grad1_0" x1="0%" y1="0%" x2="100%" y2="100%"><stop offset="30%" stop-color="#b9ec5c" stop-opacity="1"></stop><stop offset="70%" stop-color="#b9ec5c" stop-opacity="1"></stop></linearGradient></defs><defs><linearGradient id="grad1_1" x1="0%" y1="0%" x2="100%" y2="100%"><stop offset="30%" stop-color="#b9ec5c" stop-opacity="1"></stop><stop offset="70%" stop-color="#7baf1a" stop-opacity="1"></stop></linearGradient></defs><defs><linearGradient id="grad1_2" x1="0%" y1="0%" x2="100%" y2="100%"><stop offset="30%" stop-color="#3e7500" stop-opacity="1"></stop><stop offset="70%" stop-color="#7baf1a" stop-opacity="1"></stop></linearGradient></defs><defs><linearGradient id="grad1_3" x1="0%" y1="0%" x2="100%" y2="100%"><stop offset="30%" stop-color="#3e7500" stop-opacity="1"></stop><stop offset="70%" stop-color="#0e3f00" stop-opacity="1"></stop></linearGradient></defs><defs><linearGradient id="grad1_4" x1="0%" y1="0%" x2="100%" y2="100%"><stop offset="30%" stop-color="#000000" stop-opacity="1"></stop><stop offset="70%" stop-color="#0e3f00" stop-opacity="1"></stop></linearGradient></defs><defs><linearGradient id="grad2_0" x1="0%" y1="0%" x2="100%" y2="100%"><stop offset="30%" stop-color="#b9ec5c" stop-opacity="1"></stop><stop offset="70%" stop-color="#b9ec5c" stop-opacity="1"></stop></linearGradient></defs><defs><linearGradient id="grad2_1" x1="0%" y1="0%" x2="100%" y2="100%"><stop offset="30%" stop-color="#7baf1a" stop-opacity="1"></stop><stop offset="70%" stop-color="#b9ec5c" stop-opacity="1"></stop></linearGradient></defs><defs><linearGradient id="grad2_2" x1="0%" y1="0%" x2="100%" y2="100%"><stop offset="30%" stop-color="#7baf1a" stop-opacity="1"></stop><stop offset="70%" stop-color="#3e7500" stop-opacity="1"></stop></linearGradient></defs><defs><linearGradient id="grad2_3" x1="0%" y1="0%" x2="100%" y2="100%"><stop offset="30%" stop-color="#0e3f00" stop-opacity="1"></stop><stop offset="70%" stop-color="#3e7500" stop-opacity="1"></stop></linearGradient></defs><defs><linearGradient id="grad2_4" x1="0%" y1="0%" x2="100%" y2="100%"><stop offset="30%" stop-color="#0e3f00" stop-opacity="1"></stop><stop offset="70%" stop-color="#000000" stop-opacity="1"></stop></linearGradient></defs><g transform="translate(430, 0)"><path d="M0 207.1C-27.2 199.6 -54.4 192.2 -73.5 177.4C-92.6 162.6 -103.6 140.4 -124.5 124.5C-145.3 108.5 -175.9 98.9 -191.3 79.2C-206.7 59.6 -206.9 29.8 -207.1 0L0 0Z" fill="#0c2700"></path><path d="M0 165.7C-21.7 159.7 -43.5 153.8 -58.8 141.9C-74.1 130 -82.9 112.3 -99.6 99.6C-116.2 86.8 -140.7 79.2 -153.1 63.4C-165.4 47.6 -165.5 23.8 -165.7 0L0 0Z" fill="#215a00"></path><path d="M0 124.3C-16.3 119.8 -32.6 115.3 -44.1 106.4C-55.6 97.5 -62.2 84.2 -74.7 74.7C-87.2 65.1 -105.6 59.4 -114.8 47.5C-124 35.7 -124.1 17.9 -124.3 0L0 0Z" fill="#5d9100"></path><path d="M0 82.8C-10.9 79.9 -21.7 76.9 -29.4 71C-37 65 -41.4 56.1 -49.8 49.8C-58.1 43.4 -70.4 39.6 -76.5 31.7C-82.7 23.8 -82.8 11.9 -82.8 0L0 0Z" fill="#9acd3d"></path><path d="M0 41.4C-5.4 39.9 -10.9 38.4 -14.7 35.5C-18.5 32.5 -20.7 28.1 -24.9 24.9C-29.1 21.7 -35.2 19.8 -38.3 15.8C-41.3 11.9 -41.4 6 -41.4 0L0 0Z" fill="#b9ec5c"></path></g><g transform="translate(0, 540)"><path d="M0 -207.1C22.2 -193.7 44.4 -180.3 71.6 -172.8C98.7 -165.2 130.7 -163.5 146.4 -146.4C162.2 -129.4 161.7 -97 169.1 -70C176.5 -43.1 191.8 -21.5 207.1 0L0 0Z" fill="#0c2700"></path><path d="M0 -165.7C17.8 -155 35.6 -144.3 57.2 -138.2C78.9 -132.2 104.5 -130.8 117.1 -117.1C129.7 -103.5 129.3 -77.6 135.3 -56C141.2 -34.5 153.4 -17.2 165.7 0L0 0Z" fill="#215a00"></path><path d="M0 -124.3C13.3 -116.2 26.7 -108.2 42.9 -103.7C59.2 -99.1 78.4 -98.1 87.9 -87.9C97.3 -77.6 97 -58.2 101.4 -42C105.9 -25.8 115.1 -12.9 124.3 0L0 0Z" fill="#5d9100"></path><path d="M0 -82.8C8.9 -77.5 17.8 -72.1 28.6 -69.1C39.5 -66.1 52.3 -65.4 58.6 -58.6C64.9 -51.8 64.7 -38.8 67.6 -28C70.6 -17.2 76.7 -8.6 82.8 0L0 0Z" fill="#9acd3d"></path><path d="M0 -41.4C4.4 -38.7 8.9 -36.1 14.3 -34.6C19.7 -33 26.1 -32.7 29.3 -29.3C32.4 -25.9 32.3 -19.4 33.8 -14C35.3 -8.6 38.4 -4.3 41.4 0L0 0Z" fill="#b9ec5c"></path></g></svg>