<svg id="visual" viewBox="0 0 960 540" width="960" height="540" xmlns="http://www.w3.org/2000/svg" xmlns:xlink="http://www.w3.org/1999/xlink" version="1.1"><rect x="0" y="0" width="960" height="540" fill="#000000"></rect><defs><linearGradient id="grad1_0" x1="43.8%" y1="0%" x2="100%" y2="100%"><stop offset="14.444444444444446%" stop-color="#b9ec5c" stop-opacity="1"></stop><stop offset="85.55555555555554%" stop-color="#b9ec5c" stop-opacity="1"></stop></linearGradient></defs><defs><linearGradient id="grad1_1" x1="43.8%" y1="0%" x2="100%" y2="100%"><stop offset="14.444444444444446%" stop-color="#b9ec5c" stop-opacity="1"></stop><stop offset="85.55555555555554%" stop-color="#679b00" stop-opacity="1"></stop></linearGradient></defs><defs><linearGradient id="grad1_2" x1="43.8%" y1="0%" x2="100%" y2="100%"><stop offset="14.444444444444446%" stop-color="#185100" stop-opacity="1"></stop><stop offset="85.55555555555554%" stop-color="#679b00" stop-opacity="1"></stop></linearGradient></defs><defs><linearGradient id="grad1_3" x1="43.8%" y1="0%" x2="100%" y2="100%"><stop offset="14.444444444444446%" stop-color="#185100" stop-opacity="1"></stop><stop offset="85.55555555555554%" stop-color="#000000" stop-opacity="1"></stop></linearGradient></defs><defs><linearGradient id="grad2_0" x1="0%" y1="0%" x2="56.3%" y2="100%"><stop offset="14.444444444444446%" stop-color="#b9ec5c" stop-opacity="1"></stop><stop offset="85.55555555555554%" stop-color="#b9ec5c" stop-opacity="1"></stop></linearGradient></defs><defs><linearGradient id="grad2_1" x1="0%" y1="0%" x2="56.3%" y2="100%"><stop offset="14.444444444444446%" stop-color="#679b00" stop-opacity="1"></stop><stop offset="85.55555555555554%" stop-color="#b9ec5c" stop-opacity="1"></stop></linearGradient></defs><defs><linearGradient id="grad2_2" x1="0%" y1="0%" x2="56.3%" y2="100%"><stop offset="14.444444444444446%" stop-color="#679b00" stop-opacity="1"></stop><stop offset="85.55555555555554%" stop-color="#185100" stop-opacity="1"></stop></linearGradient></defs><defs><linearGradient id="grad2_3" x1="0%" y1="0%" x2="56.3%" y2="100%"><stop offset="14.444444444444446%" stop-color="#000000" stop-opacity="1"></stop><stop offset="85.55555555555554%" stop-color="#185100" stop-opacity="1"></stop></linearGradient></defs><g transform="translate(960, 0)"><path d="M0 351C-52.1 352 -104.2 353 -134.3 324.3C-164.5 295.6 -172.6 237.3 -203.6 203.6C-234.7 170 -288.5 161.1 -316.9 131.3C-345.3 101.4 -348.1 50.7 -351 0L0 0Z" fill="#102e00"></path><path d="M0 263.3C-39.1 264 -78.1 264.7 -100.7 243.2C-123.3 221.7 -129.5 178 -152.7 152.7C-176 127.5 -216.4 120.8 -237.7 98.4C-258.9 76.1 -261.1 38 -263.2 0L0 0Z" fill="#3e7500"></path><path d="M0 175.5C-26 176 -52.1 176.5 -67.2 162.1C-82.2 147.8 -86.3 118.6 -101.8 101.8C-117.3 85 -144.3 80.5 -158.4 65.6C-172.6 50.7 -174.1 25.4 -175.5 0L0 0Z" fill="#8fc333"></path><path d="M0 87.8C-13 88 -26 88.2 -33.6 81.1C-41.1 73.9 -43.2 59.3 -50.9 50.9C-58.7 42.5 -72.1 40.3 -79.2 32.8C-86.3 25.4 -87 12.7 -87.7 0L0 0Z" fill="#b9ec5c"></path></g><g transform="translate(0, 540)"><path d="M0 -351C35.5 -321.3 71 -291.6 115.6 -279C160.1 -266.4 213.6 -271 248.2 -248.2C282.7 -225.4 298.3 -175.3 312.3 -129.3C326.2 -83.4 338.6 -41.7 351 0L0 0Z" fill="#102e00"></path><path d="M0 -263.2C26.6 -241 53.3 -218.7 86.7 -209.3C120.1 -199.8 160.2 -203.2 186.1 -186.1C212.1 -169.1 223.7 -131.5 234.2 -97C244.7 -62.6 254 -31.3 263.3 0L0 0Z" fill="#3e7500"></path><path d="M0 -175.5C17.8 -160.6 35.5 -145.8 57.8 -139.5C80.1 -133.2 106.8 -135.5 124.1 -124.1C141.4 -112.7 149.2 -87.6 156.1 -64.7C163.1 -41.7 169.3 -20.9 175.5 0L0 0Z" fill="#8fc333"></path><path d="M0 -87.7C8.9 -80.3 17.8 -72.9 28.9 -69.8C40 -66.6 53.4 -67.7 62 -62C70.7 -56.4 74.6 -43.8 78.1 -32.3C81.6 -20.9 84.7 -10.4 87.8 0L0 0Z" fill="#b9ec5c"></path></g></svg>