<svg id="visual" viewBox="0 0 277 47" width="277" height="47" xmlns="http://www.w3.org/2000/svg" xmlns:xlink="http://www.w3.org/1999/xlink" version="1.1"><rect x="0" y="0" width="277" height="47" fill="#fdfdfd"></rect><defs><linearGradient id="grad1_0" x1="83%" y1="0%" x2="100%" y2="100%"><stop offset="-67.8723404255319%" stop-color="#b9ec5c" stop-opacity="1"></stop><stop offset="167.87234042553195%" stop-color="#b9ec5c" stop-opacity="1"></stop></linearGradient></defs><defs><linearGradient id="grad1_1" x1="83%" y1="0%" x2="100%" y2="100%"><stop offset="-67.8723404255319%" stop-color="#b9ec5c" stop-opacity="1"></stop><stop offset="167.87234042553195%" stop-color="#fdfdfd" stop-opacity="1"></stop></linearGradient></defs><defs><linearGradient id="grad2_0" x1="0%" y1="0%" x2="17%" y2="100%"><stop offset="-67.8723404255319%" stop-color="#b9ec5c" stop-opacity="1"></stop><stop offset="167.87234042553195%" stop-color="#b9ec5c" stop-opacity="1"></stop></linearGradient></defs><defs><linearGradient id="grad2_1" x1="0%" y1="0%" x2="17%" y2="100%"><stop offset="-67.8723404255319%" stop-color="#fdfdfd" stop-opacity="1"></stop><stop offset="167.87234042553195%" stop-color="#b9ec5c" stop-opacity="1"></stop></linearGradient></defs><g transform="translate(277, 0)"><path d="M0 42.3C-4.1 38.5 -8.2 34.7 -13.8 33.3C-19.3 31.8 -26.3 32.8 -29.9 29.9C-33.5 27 -33.6 20.2 -35.1 14.5C-36.6 8.9 -39.4 4.5 -42.3 0L0 0Z" fill="#dff5af"></path><path d="M0 21.2C-2.1 19.2 -4.1 17.3 -6.9 16.6C-9.7 15.9 -13.2 16.4 -15 15C-16.7 13.5 -16.8 10.1 -17.6 7.3C-18.3 4.5 -19.7 2.2 -21.1 0L0 0Z" fill="#b9ec5c"></path></g><g transform="translate(0, 47)"><path d="M0 -42.3C4 -38 8 -33.8 13.4 -32.3C18.8 -30.9 25.6 -32.3 29.9 -29.9C34.3 -27.5 36.2 -21.3 37.9 -15.7C39.5 -10.1 40.9 -5 42.3 0L0 0Z" fill="#dff5af"></path><path d="M0 -21.1C2 -19 4 -16.9 6.7 -16.2C9.4 -15.5 12.8 -16.2 15 -15C17.1 -13.8 18.1 -10.7 18.9 -7.8C19.8 -5 20.5 -2.5 21.2 0L0 0Z" fill="#b9ec5c"></path></g></svg>