<svg id="visual" viewBox="0 0 100 30" width="100" height="30" xmlns="http://www.w3.org/2000/svg" xmlns:xlink="http://www.w3.org/1999/xlink" version="1.1"><rect x="0" y="0" width="100" height="30" fill="#fdfdfd"></rect><defs><linearGradient id="grad1_0" x1="70%" y1="0%" x2="100%" y2="100%"><stop offset="-16.66666666666667%" stop-color="#b9ec5c" stop-opacity="1"></stop><stop offset="116.66666666666666%" stop-color="#b9ec5c" stop-opacity="1"></stop></linearGradient></defs><defs><linearGradient id="grad1_1" x1="70%" y1="0%" x2="100%" y2="100%"><stop offset="-16.66666666666667%" stop-color="#b9ec5c" stop-opacity="1"></stop><stop offset="116.66666666666666%" stop-color="#fdfdfd" stop-opacity="1"></stop></linearGradient></defs><defs><linearGradient id="grad2_0" x1="0%" y1="0%" x2="30%" y2="100%"><stop offset="-16.66666666666667%" stop-color="#b9ec5c" stop-opacity="1"></stop><stop offset="116.66666666666666%" stop-color="#b9ec5c" stop-opacity="1"></stop></linearGradient></defs><defs><linearGradient id="grad2_1" x1="0%" y1="0%" x2="30%" y2="100%"><stop offset="-16.66666666666667%" stop-color="#fdfdfd" stop-opacity="1"></stop><stop offset="116.66666666666666%" stop-color="#b9ec5c" stop-opacity="1"></stop></linearGradient></defs><g transform="translate(100, 0)"><path d="M0 18C-2.5 17.9 -5 17.8 -6.9 16.6C-8.8 15.5 -10.1 13.2 -11.3 11.3C-12.5 9.4 -13.7 7.9 -14.8 6.1C-15.9 4.3 -16.9 2.2 -18 0L0 0Z" fill="#dff5af"></path><path d="M0 9C-1.2 9 -2.5 8.9 -3.4 8.3C-4.4 7.7 -5 6.6 -5.7 5.7C-6.3 4.7 -6.8 4 -7.4 3.1C-7.9 2.2 -8.5 1.1 -9 0L0 0Z" fill="#b9ec5c"></path></g><g transform="translate(0, 30)"><path d="M0 -18C2.1 -17.2 4.2 -16.4 6.5 -15.7C8.8 -15 11.4 -14.4 12.7 -12.7C14 -11.1 14.1 -8.4 14.8 -6.1C15.5 -3.8 16.7 -1.9 18 0L0 0Z" fill="#dff5af"></path><path d="M0 -9C1 -8.6 2.1 -8.2 3.3 -7.9C4.4 -7.5 5.7 -7.2 6.4 -6.4C7 -5.5 7.1 -4.2 7.4 -3.1C7.7 -1.9 8.4 -1 9 0L0 0Z" fill="#b9ec5c"></path></g></svg>