<svg id="visual" viewBox="0 0 1400 50" width="1400" height="50" xmlns="http://www.w3.org/2000/svg" xmlns:xlink="http://www.w3.org/1999/xlink" version="1.1"><rect x="0" y="0" width="1400" height="50" fill="#416165"></rect><path d="M0 36L21.2 35.8C42.3 35.7 84.7 35.3 127.2 37C169.7 38.7 212.3 42.3 254.8 43.2C297.3 44 339.7 42 382 39.7C424.3 37.3 466.7 34.7 509 35.2C551.3 35.7 593.7 39.3 636.2 40.2C678.7 41 721.3 39 763.8 39.3C806.3 39.7 848.7 42.3 891 41.5C933.3 40.7 975.7 36.3 1018 36.2C1060.3 36 1102.7 40 1145.2 41.2C1187.7 42.3 1230.3 40.7 1272.8 40.8C1315.3 41 1357.7 43 1378.8 44L1400 45L1400 51L1378.8 51C1357.7 51 1315.3 51 1272.8 51C1230.3 51 1187.7 51 1145.2 51C1102.7 51 1060.3 51 1018 51C975.7 51 933.3 51 891 51C848.7 51 806.3 51 763.8 51C721.3 51 678.7 51 636.2 51C593.7 51 551.3 51 509 51C466.7 51 424.3 51 382 51C339.7 51 297.3 51 254.8 51C212.3 51 169.7 51 127.2 51C84.7 51 42.3 51 21.2 51L0 51Z" fill="#000000" stroke-linecap="round" stroke-linejoin="miter"></path></svg>