<svg id="visual" viewBox="0 0 1400 50" width="1400" height="50" xmlns="http://www.w3.org/2000/svg" xmlns:xlink="http://www.w3.org/1999/xlink" version="1.1"><rect x="0" y="0" width="1400" height="50" fill="#ffffff"></rect><path d="M0 37L12.3 34.3C24.7 31.7 49.3 26.3 73.8 25.2C98.3 24 122.7 27 147.2 28.7C171.7 30.3 196.3 30.7 221 30.5C245.7 30.3 270.3 29.7 294.8 29.7C319.3 29.7 343.7 30.3 368.2 31.7C392.7 33 417.3 35 442 33.5C466.7 32 491.3 27 515.8 26.8C540.3 26.7 564.7 31.3 589.2 31C613.7 30.7 638.3 25.3 663 24.3C687.7 23.3 712.3 26.7 737 28.5C761.7 30.3 786.3 30.7 810.8 29.7C835.3 28.7 859.7 26.3 884.2 25.7C908.7 25 933.3 26 958 28.2C982.7 30.3 1007.3 33.7 1031.8 32.8C1056.3 32 1080.7 27 1105.2 24.8C1129.7 22.7 1154.3 23.3 1179 23C1203.7 22.7 1228.3 21.3 1252.8 22.7C1277.3 24 1301.7 28 1326.2 30.5C1350.7 33 1375.3 34 1387.7 34.5L1400 35L1400 51L1387.7 51C1375.3 51 1350.7 51 1326.2 51C1301.7 51 1277.3 51 1252.8 51C1228.3 51 1203.7 51 1179 51C1154.3 51 1129.7 51 1105.2 51C1080.7 51 1056.3 51 1031.8 51C1007.3 51 982.7 51 958 51C933.3 51 908.7 51 884.2 51C859.7 51 835.3 51 810.8 51C786.3 51 761.7 51 737 51C712.3 51 687.7 51 663 51C638.3 51 613.7 51 589.2 51C564.7 51 540.3 51 515.8 51C491.3 51 466.7 51 442 51C417.3 51 392.7 51 368.2 51C343.7 51 319.3 51 294.8 51C270.3 51 245.7 51 221 51C196.3 51 171.7 51 147.2 51C122.7 51 98.3 51 73.8 51C49.3 51 24.7 51 12.3 51L0 51Z" fill="#416165" stroke-linecap="round" stroke-linejoin="miter"></path></svg>