<svg id="visual" viewBox="0 0 960 70" width="960" height="70" xmlns="http://www.w3.org/2000/svg" xmlns:xlink="http://www.w3.org/1999/xlink" version="1.1"><path d="M0 28L8.8 29.2C17.7 30.3 35.3 32.7 53.2 34.2C71 35.7 89 36.3 106.8 34.3C124.7 32.3 142.3 27.7 160 25.5C177.7 23.3 195.3 23.7 213.2 23.3C231 23 249 22 266.8 24.5C284.7 27 302.3 33 320 34.3C337.7 35.7 355.3 32.3 373.2 28.7C391 25 409 21 426.8 21C444.7 21 462.3 25 480 28.7C497.7 32.3 515.3 35.7 533.2 36.2C551 36.7 569 34.3 586.8 34C604.7 33.7 622.3 35.3 640 33.5C657.7 31.7 675.3 26.3 693.2 26.2C711 26 729 31 746.8 34.3C764.7 37.7 782.3 39.3 800 36.5C817.7 33.7 835.3 26.3 853.2 21.8C871 17.3 889 15.7 906.8 18.5C924.7 21.3 942.3 28.7 951.2 32.3L960 36L960 0L951.2 0C942.3 0 924.7 0 906.8 0C889 0 871 0 853.2 0C835.3 0 817.7 0 800 0C782.3 0 764.7 0 746.8 0C729 0 711 0 693.2 0C675.3 0 657.7 0 640 0C622.3 0 604.7 0 586.8 0C569 0 551 0 533.2 0C515.3 0 497.7 0 480 0C462.3 0 444.7 0 426.8 0C409 0 391 0 373.2 0C355.3 0 337.7 0 320 0C302.3 0 284.7 0 266.8 0C249 0 231 0 213.2 0C195.3 0 177.7 0 160 0C142.3 0 124.7 0 106.8 0C89 0 71 0 53.2 0C35.3 0 17.7 0 8.8 0L0 0Z" fill="#000000" stroke-linecap="round" stroke-linejoin="miter"></path></svg>